# xmcd
#
# Track frame offsets:
#	150
#	19270
#	40142
#	58237
#	75050
#	94305
#	116152
#	137567
#	148765
#	168500
#	193527
#
# Disc length: 2790 seconds
#
# Revision: 1
# Processed by: cddbd v1.5.1PL0 Copyright (c) Steve Scherf et al.
# Submitted via: CDex 1.50Beta5
#
DISCID=940ae40b
DTITLE=白鳥英美子 - Heart Side〜白鳥英美子コレクション
DYEAR=1990
DGENRE=Pop
TTITLE0=ハートランド
TTITLE1=ソレアード
TTITLE2=フィールズ・オブ・セント・エティエンヌ
TTITLE3=ラブ・イン・アワ・ライブス
TTITLE4=アイズ・オブ・ラブ
TTITLE5=トラベリング・ボーイ
TTITLE6=イフ・ザ・ワールド・ハド・ア・ソング
TTITLE7=観覧車
TTITLE8=ウッドストック
TTITLE9=美しく青きドナウ
TTITLE10=アメイジング・グレイス
EXTD=
EXTT0=
EXTT1=
EXTT2=
EXTT3=
EXTT4=
EXTT5=
EXTT6=
EXTT7=
EXTT8=
EXTT9=
EXTT10=
PLAYORDER=
